PathFileType	4	(X/Y/Z)	SUBJ59_3_walk_RCNL2025.trc
DataRate	CameraRate	NumFrames	NumMarkers	Units	OrigDataRate	OrigDataStartFrame	OrigNumFrames
100	100	11	25	mm	100	39	306
Frame#	Time	R_Shoulder			L_Shoulder			C7			J_Notch			R_Elbow			L_Elbow			R_Wrist			L_Wrist			R_Asis			L_Asis			Sacral			Thoracic			Sternum			R_Thigh_Lateral			R_Knee_Lateral			R_Shank_Lateral			R_Ankle_Lateral			R_Heel			R_Toe			L_Thigh_Lateral			L_Knee_Lateral			L_Shank_Lateral			L_Ankle_Lateral			L_Heel			L_Toe		
		X1	Y1	Z1	X2	Y2	Z2	X3	Y3	Z3	X4	Y4	Z4	X5	Y5	Z5	X6	Y6	Z6	X7	Y7	Z7	X8	Y8	Z8	X9	Y9	Z9	X10	Y10	Z10	X11	Y11	Z11	X12	Y12	Z12	X13	Y13	Z13	X14	Y14	Z14	X15	Y15	Z15	X16	Y16	Z16	X17	Y17	Z17	X18	Y18	Z18	X19	Y19	Z19	X20	Y20	Z20	X21	Y21	Z21	X22	Y22	Z22	X23	Y23	Z23	X24	Y24	Z24	X25	Y25	Z25
39	0.38000000	-803.317810	1427.206543	101.386909	-786.991394	1482.712524	-297.266754	-888.077209	1535.442627	-100.347618	-726.924988	1438.526978	-102.149307	-889.728699	1114.384277	175.735245	-738.643005	1165.387939	-438.902374	-890.814453	833.916107	180.252792	-548.801819	989.183746	-388.523514	-722.935425	979.101074	-3.582941	-729.652527	976.454346	-232.301422	-945.450012	999.609802	-111.398064	-953.117676	1320.052612	-130.637207	-673.489075	1245.337891	-118.689308	-708.596497	594.974365	99.946075	-670.097839	510.895294	48.382889	-642.975952	315.743347	130.013397	-595.862915	69.608002	30.813414	-628.373291	50.397167	-17.826059	-434.011169	78.707130	-3.136102	-896.194031	603.884766	-317.515137	-924.468201	497.407104	-260.150848	-1010.348206	318.778748	-322.395142	-1131.900513	119.536659	-254.891937	-1186.183105	114.384201	-206.332489	-997.450317	39.088497	-198.857544
40	0.39000000	-791.713013	1426.144287	103.952759	-775.471191	1483.343506	-294.712402	-876.377075	1535.136475	-97.313919	-715.054382	1438.481689	-99.425819	-877.922302	1113.102783	177.600601	-728.958252	1165.985107	-437.271698	-878.923370	832.659851	181.689026	-538.629395	990.479248	-386.805954	-710.640747	979.161621	-1.806562	-717.194214	975.841675	-230.432114	-933.097717	999.448364	-109.767029	-941.029541	1319.822266	-128.615601	-661.108398	1245.561523	-116.528229	-694.046631	596.307312	100.769028	-657.767395	511.121918	49.665371	-633.599304	315.137268	130.493927	-592.420715	68.695656	31.024870	-626.008972	51.028984	-17.284557	-430.546692	72.861938	-4.340141	-884.043945	603.414490	-316.619141	-911.774048	496.647461	-260.101654	-1002.167847	320.337219	-322.800171	-1128.353394	123.779152	-255.805435	-1182.300537	120.408142	-207.102249	-997.281860	38.827995	-198.949600
41	0.40000000	-780.032837	1425.259644	106.504257	-763.900146	1484.126709	-292.204590	-864.546570	1535.055420	-94.257141	-703.095154	1438.653076	-96.676643	-865.939270	1111.992310	179.519623	-719.484436	1166.606689	-435.518250	-866.608002	831.579773	183.169182	-529.064240	991.319611	-385.093658	-698.556702	979.450134	0.048249	-704.689575	975.421814	-228.390732	-920.762268	999.498169	-108.167076	-928.877502	1319.829346	-126.618187	-648.626709	1246.002319	-114.279297	-679.852722	597.789795	101.807999	-645.604065	511.606171	51.134861	-624.051392	314.978424	131.282333	-589.551819	68.029953	31.365301	-624.196167	51.884003	-16.598654	-427.693848	67.345093	-5.415571	-871.045959	602.815247	-315.749451	-898.091919	495.808136	-260.078522	-993.215149	322.102631	-323.114441	-1124.047485	128.519699	-256.516785	-1177.451294	127.093765	-207.550598	-997.096863	38.505829	-198.960602
42	0.41000000	-768.281067	1424.576050	109.016953	-752.257690	1485.064087	-289.743195	-852.597168	1535.196045	-91.213318	-691.070618	1439.025146	-93.927536	-853.765503	1111.083008	181.469696	-710.197571	1167.269409	-433.648071	-853.868958	830.704773	184.683517	-520.099152	991.696808	-383.392746	-686.733948	979.974426	1.958570	-692.171387	975.228394	-226.217407	-908.455444	999.771423	-106.614647	-916.696350	1320.057495	-124.658257	-636.098755	1246.635620	-111.970512	-666.207092	599.323975	103.087486	-633.609436	512.310486	52.756340	-614.132080	315.201294	132.396133	-587.148376	67.572327	31.768644	-622.768188	52.844101	-15.833821	-425.349701	62.430233	-6.316405	-857.076843	602.098694	-314.947662	-883.314026	494.916779	-260.092194	-983.336487	324.105560	-323.311981	-1118.798706	133.806046	-256.935669	-1171.425293	134.476746	-207.556076	-996.848938	38.149986	-198.858978
43	0.42000000	-756.462280	1424.111816	111.472000	-740.530701	1486.144165	-287.318695	-840.564941	1535.532959	-88.220932	-679.006592	1439.567505	-91.212433	-841.391846	1110.399536	183.432816	-701.072083	1167.984375	-431.673950	-840.704315	830.057007	186.228027	-511.724792	991.606110	-381.709137	-675.175110	980.732971	3.905363	-679.676086	975.280151	-223.960571	-896.188293	1000.261780	-105.127403	-904.523804	1320.475708	-122.742752	-623.583618	1247.421387	-109.633232	-653.221191	600.802246	104.590683	-621.821899	513.135193	54.464863	-603.837891	315.616455	133.751938	-585.149353	67.270531	32.144619	-621.621338	53.806934	-15.083353	-423.435181	58.260082	-7.004470	-842.048767	601.281128	-314.247681	-867.368958	493.997925	-260.140808	-972.395569	326.346741	-323.379303	-1112.422241	139.655243	-256.984863	-1164.023193	142.543991	-207.023636	-996.450317	37.813049	-198.631104
44	0.43000000	-744.581543	1423.875366	113.856682	-728.720215	1487.338623	-284.918610	-828.505005	1536.024536	-85.315376	-666.933289	1440.241211	-88.569092	-828.815735	1109.953369	185.398178	-692.081360	1168.749023	-429.611511	-827.112915	829.644775	187.802574	-503.926987	991.044312	-380.046967	-663.826111	981.718140	5.879063	-667.244263	975.575623	-221.673325	-883.976562	1000.941528	-103.716667	-892.399597	1321.047119	-120.869949	-611.138184	1248.310913	-107.302330	-640.956665	602.121094	106.255150	-610.342712	513.949402	56.177780	-593.434021	315.993652	135.201675	-583.498230	67.073318	32.410492	-620.686157	54.697449	-14.435480	-421.873474	54.865517	-7.478517	-825.918457	600.372314	-313.666626	-850.237122	493.063293	-260.200989	-960.282959	328.790802	-323.313721	-1104.754883	146.040802	-256.613098	-1155.087524	151.226013	-205.903275	-995.757019	37.580826	-198.289642
45	0.44000000	-732.643311	1423.862427	116.161537	-716.845825	1488.604492	-282.534637	-816.478699	1536.625366	-82.523651	-654.889465	1441.005981	-86.029739	-816.039917	1109.738647	187.363113	-683.198364	1169.545898	-427.475433	-813.099915	829.461029	189.407562	-496.684387	990.010193	-378.409058	-652.592468	982.912292	7.881439	-654.917786	976.090942	-219.410934	-871.842651	1001.762329	-102.383026	-880.362427	1321.732666	-119.029976	-598.812073	1249.254395	-105.016106	-629.455444	603.197083	107.984367	-599.329102	514.635681	57.814590	-583.395508	316.162781	136.600433	-582.133789	66.938759	32.512405	-619.914917	55.470604	-13.949682	-420.594360	52.190048	-7.792399	-808.694946	599.371948	-313.199585	-831.957947	492.113495	-260.227142	-946.923828	331.370972	-323.115997	-1095.680908	152.892899	-255.802765	-1144.535400	160.401108	-204.198624	-994.555237	37.578247	-197.881104
46	0.45000000	-720.649841	1424.055054	118.374573	-704.946228	1489.889038	-280.166595	-804.540405	1537.295654	-79.861412	-642.921692	1441.823730	-83.614037	-803.071838	1109.733887	189.332458	-674.395630	1170.347778	-425.278992	-798.681519	829.485107	191.041794	-489.968185	988.504608	-376.800095	-641.374329	984.280579	9.921536	-642.733704	976.781555	-217.223206	-859.814209	1002.662354	-101.116470	-868.444946	1322.493408	-117.208687	-586.645630	1250.206787	-102.812546	-618.746948	603.983032	109.672844	-588.953857	515.119934	59.313095	-574.216187	316.063660	137.845963	-580.998352	66.843605	32.434475	-619.276611	56.110134	-13.649008	-419.540283	50.126896	-8.035640	-790.447571	598.277100	-312.818054	-812.630493	491.147552	-260.160889	-932.289856	334.002960	-322.783447	-1085.153320	160.111023	-254.569931	-1132.383545	169.907394	-201.966995	-992.551758	37.969051	-197.487198
47	0.46000000	-708.603271	1424.423340	120.477814	-693.075989	1491.140137	-277.823456	-792.729736	1538.006348	-77.333778	-631.076294	1442.662964	-81.330566	-789.922363	1109.905396	191.314178	-665.647278	1171.122559	-423.037994	-783.884552	829.685181	192.702614	-483.743759	986.530884	-375.229263	-630.102417	985.770081	12.005690	-630.714783	977.589539	-215.140305	-847.921265	1003.578247	-99.899948	-856.671021	1323.295166	-115.392403	-574.670166	1251.132812	-100.724823	-608.833435	604.479431	111.233154	-579.355652	515.377197	60.634884	-566.225220	315.726807	138.875580	-580.048035	66.787971	32.197441	-618.749451	56.623051	-13.526892	-418.665222	48.557102	-8.286979	-771.313293	597.098145	-312.470184	-792.408508	490.173737	-259.946259	-916.409241	336.607849	-322.306824	-1073.202393	167.580811	-252.957291	-1118.751953	179.558655	-199.309540	-989.375916	38.942768	-197.213150
48	0.47000000	-696.510864	1424.931396	122.449944	-681.299194	1492.314941	-275.524231	-781.069397	1538.741577	-74.938995	-619.390015	1443.501099	-79.185867	-776.603027	1110.212646	193.313339	-656.934387	1171.835083	-420.773254	-768.740814	830.024261	194.386337	-477.972916	984.096710	-373.709717	-618.759216	987.314758	14.125514	-618.864746	978.456604	-213.166534	-836.191589	1004.457214	-98.714989	-845.056641	1324.115356	-113.571182	-562.907410	1252.011597	-98.779449	-599.671875	604.733582	112.611946	-570.600525	515.423889	61.764420	-559.535156	315.218079	139.653824	-579.257751	66.787720	31.848434	-618.314941	57.030605	-13.558224	-417.933838	47.371857	-8.584567	-751.497559	595.874634	-312.087860	-771.487061	489.220490	-259.542145	-899.371643	339.141327	-321.669739	-1059.920776	175.186813	-251.021637	-1103.837524	189.157089	-196.347321	-984.598938	40.679882	-197.162430
49	0.48000000	-684.389832	1425.544189	124.272804	-669.680420	1493.386353	-273.299103	-769.568176	1539.499878	-72.673393	-607.884033	1444.329590	-77.192444	-763.124268	1110.616089	195.329391	-648.249023	1172.447754	-418.507751	-753.282990	830.468140	196.088249	-472.616257	981.219116	-372.257278	-607.379700	988.845154	16.252920	-607.175293	979.340576	-211.291428	-824.646362	1005.264771	-97.546852	-833.610901	1324.948364	-111.740601	-551.367432	1252.840210	-96.996132	-591.171387	604.820984	113.791618	-562.668640	515.303406	62.705677	-554.096436	314.597260	140.173248	-578.615417	66.858292	31.444345	-617.956177	57.358341	-13.708062	-417.322876	46.480667	-8.931893	-731.263428	594.683777	-311.602203	-750.076782	488.346893	-258.930939	-881.326477	341.619263	-320.848602	-1045.427124	182.812820	-248.819336	-1087.859375	198.494598	-193.187622	-977.776611	43.293240	-197.405289
